<svg width="64" height="64" viewBox="0 0 64 64" fill="none" xmlns="http://www.w3.org/2000/svg">
<path d="M46.8563 34.2937L36.5688 40.0062V51.4375L46.8563 57.15L57.1438 51.4375V40.0062L46.8563 34.2937ZM52.5688 48.75L46.8563 51.9249L41.1438 48.75V42.7L46.8563 39.525L52.5688 42.7V48.75Z" fill="#E2E2E2" stroke="#323232" stroke-width="0.00064"/>
<path d="M44.6003 46.091C44.6484 46.3875 44.7544 46.6717 44.9123 46.9272C45.0703 47.1828 45.2769 47.4047 45.5206 47.5804C45.7643 47.756 46.0402 47.882 46.3326 47.951C46.6249 48.0201 46.928 48.0308 47.2245 47.9827C47.5211 47.9347 47.8052 47.8286 48.0608 47.6707C48.3163 47.5128 48.5382 47.3061 48.7139 47.0624C48.8896 46.8187 49.0155 46.5428 49.0846 46.2505C49.1536 45.9581 49.1644 45.655 49.1163 45.3585C49.0682 45.062 48.9622 44.7778 48.8043 44.5223C48.6463 44.2668 48.4397 44.0448 48.196 43.8691C47.9523 43.6935 47.6764 43.5675 47.384 43.4985C47.0917 43.4295 46.7886 43.4187 46.4921 43.4668C46.1955 43.5149 45.9114 43.6209 45.6558 43.7788C45.4003 43.9367 45.1784 44.1434 45.0027 44.3871C44.827 44.6308 44.7011 44.9067 44.632 45.199C44.563 45.4914 44.5522 45.7945 44.6003 46.091Z" fill="#0F1F3C" stroke="#E2E2E2" stroke-width="0.00064"/>
<path d="M43.0439 29.9874C42.2502 29.5999 41.4377 29.25 40.6127 28.95C43.7252 26.4312 45.7127 22.5875 45.7127 18.2875C45.7127 10.725 39.5627 4.57495 32.0002 4.57495C24.4377 4.57495 18.2877 10.725 18.2877 18.2875C18.2877 22.5937 20.2814 26.4437 23.3939 28.9562C13.7564 32.4812 6.85645 41.7374 6.85645 52.5812H11.4252C11.4252 41.2374 20.6564 32.0125 31.9939 32.0125C35.1627 32.0125 38.2002 32.7125 41.0252 34.0937L43.0439 29.9874ZM32.0002 9.1437C37.0439 9.1437 41.1439 13.2437 41.1439 18.2875C41.1439 23.3312 37.0439 27.4312 32.0002 27.4312C26.9564 27.4312 22.8564 23.3312 22.8564 18.2875C22.8564 13.2437 26.9627 9.1437 32.0002 9.1437Z" fill="#0F1F3C" stroke="#323232" stroke-width="0.00064"/>
</svg>
