<svg width="64" height="64" viewBox="0 0 64 64" fill="none" xmlns="http://www.w3.org/2000/svg">
<path fill-rule="evenodd" clip-rule="evenodd" d="M17.474 4.28137C18.9583 3.53929 20.729 2.66663 23.9998 2.66663C27.2705 2.66663 29.0414 3.53921 30.5257 4.28129L30.5681 4.30255C31.7297 4.88345 32.6289 5.33305 34.6665 5.33311C37.9654 5.33324 39.9193 4.10319 40.5708 3.61361C41.5849 2.85148 42.783 2.91575 43.6102 3.29836C44.4481 3.68591 45.3332 4.6106 45.3332 5.97724V34.6666H53.3332C57.7497 34.6666 61.3332 38.244 61.3332 42.664V50.6666C61.3332 53.1333 60.7089 55.1605 59.6353 56.7709C58.5729 58.3645 57.1753 59.3936 55.859 60.0517C54.5532 60.7048 53.2796 61.0178 52.3548 61.172C51.7996 61.2645 51.2308 61.3344 50.6665 61.3333H13.3332C10.8666 61.3333 8.8393 60.709 7.22896 59.6354C5.63533 58.573 4.60621 57.1754 3.94802 55.8592C3.29509 54.5533 2.98189 53.2797 2.82778 52.3552C2.74968 51.8864 2.7096 51.4901 2.6889 51.2005C2.67168 50.9592 2.66658 50.8162 2.6665 50.6666V5.97719C2.6665 4.6106 3.55141 3.68591 4.38933 3.29836C5.21658 2.91572 6.4148 2.85145 7.42888 3.61353C8.08034 4.10311 10.0342 5.33311 13.3332 5.33311C15.3709 5.33311 16.2699 4.88353 17.4315 4.30263L17.474 4.28137ZM8.00869 50.6666L7.99984 9.82319C9.44032 10.3087 11.2194 10.6664 13.3332 10.6664C16.604 10.6664 18.3747 9.7938 19.859 9.05172L19.9015 9.03047C21.0631 8.44956 21.9621 7.99996 23.9998 7.99996C26.0376 7.99996 26.9366 8.44953 28.0982 9.03044L28.1406 9.05167C29.6249 9.79372 31.3956 10.6664 34.6665 10.6664C36.7804 10.6665 38.5593 10.3088 39.9998 9.82324V50.6666C39.9998 52.7546 40.4473 54.528 41.2358 56H13.3332C11.7998 56 10.827 55.6242 10.1874 55.1978C9.53101 54.7602 9.06013 54.1578 8.71832 53.4741C8.37125 52.78 8.18445 52.0536 8.08856 51.4784C8.04349 51.2077 8.01616 50.9397 8.00869 50.6666ZM51.4782 55.9112C52.0534 55.8154 52.7798 55.6285 53.474 55.2816C54.1577 54.9397 54.7601 54.4688 55.1977 53.8125C55.6241 53.1728 55.9998 52.2 55.9998 50.6666V42.664C55.9998 41.193 54.8076 40 53.3332 40H45.3332V50.6666C45.3332 52.2 45.7089 53.1728 46.1353 53.8125C46.5729 54.4688 47.1753 54.9397 47.859 55.2816C48.5532 55.6285 49.2796 55.8154 49.855 55.9112C50.1364 55.9581 50.3649 55.9805 50.5126 55.9912C50.8342 56.0141 51.1617 55.964 51.4782 55.9112Z" fill="#323232"/>
<path d="M13.333 21.3333C13.333 19.8605 14.5269 18.6666 15.9997 18.6666H31.9997C33.4725 18.6666 34.6663 19.8605 34.6663 21.3333C34.6663 22.8061 33.4725 24 31.9997 24H15.9997C14.5269 24 13.333 22.8061 13.333 21.3333Z" fill="#E2E2E2"/>
<path d="M13.333 31.9999C13.333 30.5271 14.5269 29.3333 15.9997 29.3333H31.9997C33.4725 29.3333 34.6663 30.5271 34.6663 31.9999C34.6663 33.4727 33.4725 34.6666 31.9997 34.6666H15.9997C14.5269 34.6666 13.333 33.4727 13.333 31.9999Z" fill="#E2E2E2"/>
<path d="M13.333 42.6667C13.333 41.1939 14.5269 40 15.9997 40H31.9997C33.4725 40 34.6663 41.1939 34.6663 42.6667C34.6663 44.1395 33.4725 45.3333 31.9997 45.3333H15.9997C14.5269 45.3333 13.333 44.1395 13.333 42.6667Z" fill="#E2E2E2"/>
</svg>
