<svg width="64" height="64" viewBox="0 0 64 64" fill="none" xmlns="http://www.w3.org/2000/svg">
<path d="M24.0052 18.6666C24.0375 12.8666 24.2947 9.72547 26.3438 7.67646C28.687 5.33331 32.4582 5.33331 40.0006 5.33331H42.6672C50.2096 5.33331 53.9811 5.33331 56.324 7.67646C58.6672 10.0196 58.6673 13.7908 58.6673 21.3333V42.6666C58.6673 50.209 58.6672 53.9802 56.324 56.3234C53.9811 58.6666 50.2096 58.6666 42.6672 58.6666H40.0006C32.4582 58.6666 28.687 58.6666 26.3438 56.3234C24.2947 54.2744 24.0375 51.1333 24.0052 45.3333" stroke="#323232" stroke-width="6.4" stroke-linecap="round"/>
<path d="M40 32H5.33337M5.33337 32L14.6667 24M5.33337 32L14.6667 40" stroke="#323232" stroke-width="6.4" stroke-linecap="round" stroke-linejoin="round"/>
</svg>
