<svg width="64" height="64" viewBox="0 0 64 64" fill="none" xmlns="http://www.w3.org/2000/svg">
<path fill-rule="evenodd" clip-rule="evenodd" d="M13.3333 18.6666C13.3333 14.2484 16.9151 10.6666 21.3333 10.6666C25.7516 10.6666 29.3333 14.2484 29.3333 18.6666V29.3333H34.6667V26.6666C34.6667 22.2484 38.2483 18.6666 42.6667 18.6666C47.0851 18.6666 50.6667 22.2484 50.6667 26.6666V29.3333H53.3333C54.8061 29.3333 56 30.5272 56 32C56 33.4728 54.8061 34.6666 53.3333 34.6666H50.6667V37.3333C50.6667 41.7517 47.0851 45.3333 42.6667 45.3333C38.2483 45.3333 34.6667 41.7517 34.6667 37.3333V34.6666H29.3333V45.3333C29.3333 49.7517 25.7516 53.3333 21.3333 53.3333C16.9151 53.3333 13.3333 49.7517 13.3333 45.3333V34.6666H10.6667C9.19392 34.6666 8 33.4728 8 32C8 30.5272 9.19392 29.3333 10.6667 29.3333H13.3333V18.6666ZM21.3333 16C19.8606 16 18.6667 17.1939 18.6667 18.6666V32V45.3333C18.6667 46.8061 19.8606 48 21.3333 48C22.8061 48 24 46.8061 24 45.3333V32V18.6666C24 17.1939 22.8061 16 21.3333 16ZM42.6667 24C41.1939 24 40 25.1939 40 26.6666V32V37.3333C40 38.8061 41.1939 40 42.6667 40C44.1395 40 45.3333 38.8061 45.3333 37.3333V32V26.6666C45.3333 25.1939 44.1395 24 42.6667 24Z" fill="#323232"/>
</svg>
